<svg id="outlet-green" xmlns="http://www.w3.org/2000/svg" width="122.86" height="88.71" viewBox="0 0 122.86 88.71">
  <path id="Path_2" data-name="Path 2" d="M83.27,31.14v5.62c0,9.78,3.83,14.56,13.79,15.76v.54a4.772,4.772,0,0,0-.07.76V79.88c-10.51.02-15.99.11-26.33.2-8.93.08-17.87.16-31.12.17V69.48H63.8a6.609,6.609,0,0,0,6.59-6.59V6.59A6.615,6.615,0,0,0,63.8,0H6.59A6.615,6.615,0,0,0,0,6.59v56.3a6.609,6.609,0,0,0,6.59,6.59h24.5v15a4.231,4.231,0,0,0,4.23,4.23c11.98,0,23.69-.1,35.41-.21,9.85-.09,14.85-.17,30.49-.17a4.231,4.231,0,0,0,4.23-4.23V53.82a4.022,4.022,0,0,0-.09-.85v-.54c9.86-.95,13.79-6.75,13.79-16.22V31.14ZM31.68,47.97h7.03V43.45A2.4,2.4,0,0,0,38,41.74h0a2.4,2.4,0,0,0-1.71-.71H34.07a2.39,2.39,0,0,0-2.39,2.39v4.55Zm7.36,2.13H31.35a1.81,1.81,0,0,1-1.8-1.8V43.42a4.541,4.541,0,0,1,4.52-4.52h2.22a4.536,4.536,0,0,1,3.21,1.33h0a4.536,4.536,0,0,1,1.33,3.21v4.85a1.775,1.775,0,0,1-.53,1.27,1.689,1.689,0,0,1-1.26.54ZM24.32,21.65h3.91a2.049,2.049,0,0,1,2.04,2.05v8.58a2.049,2.049,0,0,1-2.04,2.04H24.32a2.034,2.034,0,0,1-1.44-.6c-.03-.03-.05-.06-.08-.09a2.011,2.011,0,0,1-.53-1.36V23.7a2.034,2.034,0,0,1,.6-1.44h0a2.042,2.042,0,0,1,1.45-.61Zm3.83,2.13H24.4v8.41h3.75V23.78Zm14.01-2.13h3.91a2.049,2.049,0,0,1,2.04,2.05v8.58a2.049,2.049,0,0,1-2.04,2.04H42.16a2.034,2.034,0,0,1-1.44-.6h0a2.034,2.034,0,0,1-.6-1.44V23.7a2.075,2.075,0,0,1,.6-1.45,2,2,0,0,1,1.44-.6Zm3.83,2.13H42.24v8.41h3.75V23.78ZM8.38,57.94A2.86,2.86,0,1,1,5.52,60.8a2.859,2.859,0,0,1,2.86-2.86ZM62.37,5.47a2.86,2.86,0,1,1-2.86,2.86,2.859,2.859,0,0,1,2.86-2.86ZM34.96,11.23a23.5,23.5,0,1,1-23.5,23.5,23.5,23.5,0,0,1,23.5-23.5Zm46.5,12.64h7.02V9.75a3.653,3.653,0,0,1,3.64-3.64h0a3.653,3.653,0,0,1,3.64,3.64V23.87h10.69V9.75a3.653,3.653,0,0,1,3.64-3.64h0a3.653,3.653,0,0,1,3.64,3.64V23.87h6.83a2.307,2.307,0,0,1,2.3,2.3v2.67a2.307,2.307,0,0,1-2.3,2.3H81.46a2.307,2.307,0,0,1-2.3-2.3V26.17a2.307,2.307,0,0,1,2.3-2.3ZM91.5,33.22h19.41V36.1H91.5V33.22Z" fill="#43e97b" fill-rule="evenodd"/>
</svg>
