<svg xmlns="http://www.w3.org/2000/svg" width="65.75" height="122.88" viewBox="0 0 65.75 122.88">
  <path id="Path_1" data-name="Path 1" d="M16.91,47.63H36.79V15.03a9.94,9.94,0,0,0-19.88,0v32.6Zm32.15-33.7a2.55,2.55,0,0,1,0-5.1H63.2a2.55,2.55,0,0,1,0,5.1Zm0,14.37a2.55,2.55,0,0,1,0-5.1H63.2a2.55,2.55,0,0,1,0,5.1Zm0,14.37a2.55,2.55,0,0,1,0-5.1H63.2a2.55,2.55,0,0,1,0,5.1Zm0,14.37a2.55,2.55,0,0,1,0-5.1H63.2a2.55,2.55,0,1,1,0,5.1Zm0,14.37a2.55,2.55,0,0,1,0-5.1H63.2a2.55,2.55,0,0,1,0,5.1Zm-7.18,3.04a26.623,26.623,0,1,1-30.06-.31V15.03a15.03,15.03,0,0,1,30.06,0V74.45Z" fill="#43e97b" fill-rule="evenodd"/>
</svg>
